<?xml version="1.0" encoding="UTF-8"?>
<svg width="34px" height="34px" viewBox="0 0 34 34" version="1.1" xmlns="http://www.w3.org/2000/svg" xmlns:xlink="http://www.w3.org/1999/xlink">
    <!-- Generator: Sketch 52.2 (67145) - http://www.bohemiancoding.com/sketch -->
    <title>形状</title>
    <desc>Created with Sketch.</desc>
    <g id="Page-4" stroke="none" stroke-width="1" fill="none" fill-rule="evenodd">
        <g id="标签栏icon" transform="translate(-389.000000, -440.000000)">
            <rect fill="#FBFBFB" x="0" y="0" width="720" height="1467"></rect>
            <path d="M406,440 C396.611364,440 389,447.611364 389,457 C389,466.389409 396.611364,474 406,474 C415.388636,474 423,466.389409 423,457 C423,447.611364 415.388636,440 406,440 Z M410.824136,457.000773 C410.824136,459.563909 408.818909,461.640227 406.294409,461.795545 L400.459545,466.832955 L399.699955,466.393273 L401.633318,459.021455 C401.346636,458.405591 401.175091,457.724045 401.175091,457.000773 C401.175091,454.437636 403.179545,452.361318 405.703273,452.205227 L411.540455,447.167818 L412.300045,447.605182 L410.365909,454.978546 C410.652591,455.595182 410.824136,456.275955 410.824136,457.000773 Z M403.807,457 C403.807,458.21116 404.78884,459.193 406,459.193 C407.21116,459.193 408.193,458.21116 408.193,457 C408.193,455.78884 407.21116,454.807 406,454.807 C404.78884,454.807 403.807,455.78884 403.807,457 Z" id="形状" fill="#6E62FF" fill-rule="nonzero"></path>
        </g>
    </g>
</svg>