<?xml version="1.0" encoding="UTF-8"?>
<svg width="34px" height="32px" viewBox="0 0 34 32" version="1.1" xmlns="http://www.w3.org/2000/svg" xmlns:xlink="http://www.w3.org/1999/xlink">
    <!-- Generator: Sketch 52.2 (67145) - http://www.bohemiancoding.com/sketch -->
    <title>形状</title>
    <desc>Created with Sketch.</desc>
    <g id="Page-4" stroke="none" stroke-width="1" fill="none" fill-rule="evenodd">
        <g id="标签栏icon" transform="translate(-302.000000, -441.000000)">
            <rect fill="#FBFBFB" x="0" y="0" width="720" height="1467"></rect>
            <path d="M309.880945,447.242921 L311.456532,447.242921 C311.891708,447.242921 312.244514,446.893125 312.244513,446.462462 C312.244513,445.169344 313.302929,444.121084 314.608458,444.121084 L322.489403,444.121084 C323.795309,444.121084 324.853724,445.169721 324.853724,446.462462 C324.853724,446.893501 325.206529,447.242921 325.641706,447.242921 L327.217669,447.242921 C327.652846,447.242921 328.006027,446.893125 328.006027,446.462462 L328.006027,444.90192 C328.006027,442.7471 326.242001,441 324.06499,441 L313.032871,441 C310.856237,441 309.091835,442.7471 309.091835,444.90192 L309.091835,446.462462 C309.091835,446.893501 309.44464,447.242921 309.880192,447.242921 L309.880945,447.242921 Z M324.8541,461.680851 C324.8541,462.327786 324.326021,462.850223 323.672692,462.850223 L321.701421,462.850223 C321.266997,462.850223 320.913816,463.200019 320.913816,463.630682 L320.913816,466.363229 C320.913816,467.009788 320.385361,467.532226 319.732408,467.532226 L318.156821,467.532226 C317.503868,467.532226 316.973156,467.009412 316.973156,466.363229 L316.973156,463.630682 C316.97226,463.422728 316.888764,463.223652 316.741048,463.077276 C316.593332,462.930901 316.393504,462.849223 316.18555,462.850223 L314.215784,462.850223 C313.561327,462.850223 313.032871,462.327409 313.032871,461.680851 L313.032871,460.120309 C313.032871,459.47375 313.561327,458.94868 314.215784,458.94868 L316.18555,458.94868 C316.618372,458.950554 316.970876,458.601417 316.973156,458.168597 L316.973156,456.218389 C316.973156,455.57183 317.503868,455.04676 318.156821,455.04676 L319.732408,455.04676 C320.384984,455.04676 320.913816,455.57183 320.913816,456.218389 L320.913816,458.168597 C320.913816,458.599636 321.266621,458.94868 321.701421,458.94868 L323.672692,458.94868 C324.325645,458.94868 324.8541,459.47375 324.8541,460.120309 L324.8541,461.680851 Z M331.158706,448.803839 L305.940284,448.803839 C303.764402,448.803839 302,450.550939 302,452.705759 L302,469.09352 C302,471.248339 303.764402,472.995439 305.940284,472.99544 L331.159082,472.99544 C333.33534,472.99544 335.09899,471.248716 335.09899,469.09352 L335.09899,452.705759 C335.09899,450.550939 333.33534,448.803839 331.158706,448.803839 Z" id="形状" fill="#6E62FF" fill-rule="nonzero"></path>
        </g>
    </g>
</svg>