<?xml version="1.0" encoding="UTF-8"?>
<svg width="37px" height="32px" viewBox="0 0 37 32" version="1.1" xmlns="http://www.w3.org/2000/svg" xmlns:xlink="http://www.w3.org/1999/xlink">
    <!-- Generator: Sketch 52.2 (67145) - http://www.bohemiancoding.com/sketch -->
    <title>路径</title>
    <desc>Created with Sketch.</desc>
    <g id="Page-4" stroke="none" stroke-width="1" fill="none" fill-rule="evenodd">
        <g id="标签栏icon" transform="translate(-210.000000, -441.000000)">
            <rect fill="#FBFBFB" x="0" y="0" width="720" height="1467"></rect>
            <path d="M214.381408,454.223182 C213.452309,454.901608 212.777914,455.37277 212.127364,455.874578 C211.494488,456.362616 210.838943,456.563709 210.276135,455.86425 C209.675207,455.118024 210.154178,454.562983 210.768581,454.107103 C215.517898,450.584032 220.270278,447.064783 225.021106,443.543224 C225.996721,442.819626 226.981992,442.108244 227.938379,441.360129 C228.568526,440.867137 229.127135,440.88628 229.746912,441.380826 C235.243715,445.768511 240.752817,450.141628 246.248066,454.531203 C247.063268,455.182424 247.180608,455.757029 246.657011,456.296369 C246.023002,456.949102 245.404778,456.706237 244.795748,456.208249 C244.158674,455.686877 243.499266,455.192332 242.663283,454.540732 C242.620167,455.051735 242.569789,455.371216 242.569411,455.69032 C242.564416,460.638042 242.566725,465.586142 242.565549,470.533864 C242.564793,472.864442 242.426673,472.998531 240.048741,472.997776 C237.644275,472.99702 235.23981,472.995845 232.835345,472.99702 C231.340373,472.997398 231.006408,472.684424 231.001412,471.223037 C230.99373,468.956818 230.962579,466.689424 231.015266,464.424338 C231.035292,463.559765 230.724039,463.29507 229.900356,463.347547 C229.005892,463.404222 228.105256,463.385079 227.208148,463.360939 C226.580688,463.344482 226.367546,463.61262 226.373717,464.22207 C226.395632,466.488289 226.383331,468.754928 226.383331,471.021525 C226.382953,472.689419 226.082112,472.996264 224.448978,472.996642 C221.852152,472.99702 219.255327,472.998951 216.658501,472.996264 C214.599882,472.994333 214.383298,472.782913 214.382542,470.774462 C214.380989,465.730979 214.381786,460.687119 214.381408,455.643636 L214.381408,454.223182" id="路径" fill="#6E62FF"></path>
        </g>
    </g>
</svg>