<?xml version="1.0" encoding="UTF-8"?>
<svg width="33px" height="32px" viewBox="0 0 33 32" version="1.1" xmlns="http://www.w3.org/2000/svg" xmlns:xlink="http://www.w3.org/1999/xlink">
    <!-- Generator: Sketch 52.2 (67145) - http://www.bohemiancoding.com/sketch -->
    <title>分组</title>
    <desc>Created with Sketch.</desc>
    <g id="Page-4" stroke="none" stroke-width="1" fill="none" fill-rule="evenodd">
        <g id="标签栏icon" transform="translate(-478.000000, -441.000000)">
            <rect fill="#FBFBFB" x="0" y="0" width="720" height="1467"></rect>
            <g id="分组" transform="translate(478.000000, 441.000000)" fill="#6E62FF">
                <path d="M30.0936231,31.987796 L1.97562749,31.987796 C1.39437694,31.987796 0.813126386,31.6971707 0.449844789,31.2612328 C0.0865631929,30.7526386 -0.0587494457,30.171388 0.0865631929,29.5901375 C1.53968958,22.1791929 7.57016408,16.6573126 14.835796,16.0760621 C17.2697827,16.0760621 19.9035743,16.3848514 22.5373659,17.4565322 C23.3002572,17.7653215 23.5545543,17.9651264 23.9904922,18.1830953 C28.2045588,20.5807539 31.1108115,24.7221641 32.0553437,29.5901375 C32.2006563,30.171388 32.0553437,30.7526386 31.6194058,31.2612328 C31.2561242,31.6971707 30.6748736,31.987796 30.0936231,31.987796 Z" id="路径"></path>
                <path d="M2.01195565,30.8071308 C1.77582262,30.8071308 1.55785366,30.7163104 1.4307051,30.5528337 C1.41254102,30.5346696 1.41254102,30.5165055 1.39437694,30.4983415 C1.21273614,30.3167007 1.19457206,30.0079113 1.23090022,29.8262705 C2.57504213,22.9239202 8.22407095,17.7471574 14.9811086,17.2567273 L15.526031,17.2567273 C18.7774013,17.2567273 21.9016231,18.2739157 23.4274058,19.236612 C27.4235033,21.6342705 30.0936231,25.394235 30.9291707,29.8262705 C30.9654989,30.0805676 30.9110067,30.3167007 30.7293659,30.5528337 C30.6022173,30.7163104 30.3842483,30.8071308 30.1481153,30.8071308 L2.01195565,30.8071308 Z" id="路径"></path>
                <path d="M15.526031,17.6926652 C18.6865809,17.6926652 21.7199823,18.6735255 23.1912727,19.5998936 L23.2094368,19.5998936 C27.0965499,21.9067317 29.6758492,25.5577118 30.4750687,29.8807627 C30.4932328,29.9715831 30.4932328,30.0987317 30.3479202,30.2622084 C30.3297561,30.2985366 30.2389357,30.3348647 30.1299512,30.3348647 L2.01195565,30.3348647 C1.90297118,30.3348647 1.81215078,30.2985366 1.7939867,30.2622084 C1.77582262,30.2258803 1.73949446,30.1895521 1.7031663,30.171388 C1.66683814,30.1350599 1.63050998,30.0260754 1.66683814,29.8989268 C2.97465188,23.1963814 8.44203991,18.1830953 14.9992727,17.6926652 C15.1627494,17.7108293 15.3443902,17.6926652 15.526031,17.6926652 Z M15.526031,16.7844612 C15.3443902,16.7844612 15.1445854,16.7844612 14.9629446,16.8026253 C7.98793792,17.3112195 2.17543237,22.6151308 0.794962306,29.7354501 C0.722305987,30.0987317 0.794962306,30.5346696 1.08558758,30.8252949 C1.30355654,31.1159202 1.66683814,31.2612328 2.03011973,31.2612328 L30.1481153,31.2612328 C30.5113969,31.2612328 30.8746785,31.1159202 31.0926475,30.8252949 C31.3106164,30.5346696 31.455929,30.171388 31.3832727,29.7354501 C30.5113969,25.0854457 27.7504568,21.2709889 23.6817029,18.8370022 C22.1377561,17.874306 18.9772062,16.7844612 15.526031,16.7844612 Z M16.0709534,16.729969 C11.4936053,16.729969 7.71547672,12.9518404 7.71547672,8.37449224 C7.71547672,3.79714412 11.4936053,0.0190155211 16.0709534,0.0190155211 C20.6483016,0.0190155211 24.4264302,3.79714412 24.4264302,8.37449224 C24.4264302,12.9518404 20.6483016,16.729969 16.0709534,16.729969 Z" id="形状" fill-rule="nonzero"></path>
                <path d="M16.0709534,15.5493038 C12.111184,15.5493038 8.89614191,12.3342616 8.89614191,8.37449224 C8.89614191,4.41472284 12.111184,1.19968071 16.0709534,1.19968071 C20.0307228,1.19968071 23.245765,4.41472284 23.245765,8.37449224 C23.245765,12.3342616 20.0307228,15.5493038 16.0709534,15.5493038 Z" id="路径"></path>
                <path d="M16.0709534,1.65378271 C19.7764257,1.65378271 22.791663,4.66901996 22.791663,8.37449224 C22.791663,12.0799645 19.7764257,15.0952018 16.0709534,15.0952018 C12.3654812,15.0952018 9.3502439,12.0799645 9.3502439,8.37449224 C9.3502439,4.66901996 12.3654812,1.65378271 16.0709534,1.65378271 Z M16.0709534,0.745578714 C11.8568869,0.745578714 8.44203991,4.16042572 8.44203991,8.37449224 C8.44203991,12.5885588 11.8568869,16.0034058 16.0709534,16.0034058 C20.28502,16.0034058 23.699867,12.5885588 23.699867,8.37449224 C23.699867,4.16042572 20.28502,0.745578714 16.0709534,0.745578714 Z" id="形状" fill-rule="nonzero"></path>
            </g>
        </g>
    </g>
</svg>